<?xml version="1.0" encoding="UTF-8" standalone="no"?>
<!-- Created with Inkscape (http://www.inkscape.org/) -->

<svg
   xmlns:dc="http://purl.org/dc/elements/1.1/"
   xmlns:cc="http://creativecommons.org/ns#"
   xmlns:rdf="http://www.w3.org/1999/02/22-rdf-syntax-ns#"
   xmlns:svg="http://www.w3.org/2000/svg"
   xmlns="http://www.w3.org/2000/svg"
   xmlns:sodipodi="http://sodipodi.sourceforge.net/DTD/sodipodi-0.dtd"
   xmlns:inkscape="http://www.inkscape.org/namespaces/inkscape"
   width="205mm"
   height="61mm"
   viewBox="0 0 205 61"
   version="1.1"
   id="svg8"
   inkscape:version="0.92.5 (2060ec1f9f, 2020-04-08)"
   sodipodi:docname="path_curves.svg">
  <defs
     id="defs2" />
  <sodipodi:namedview
     id="base"
     pagecolor="#ffffff"
     bordercolor="#666666"
     borderopacity="1.0"
     inkscape:pageopacity="0.0"
     inkscape:pageshadow="2"
     inkscape:zoom="1.5365159"
     inkscape:cx="381.58618"
     inkscape:cy="71.672135"
     inkscape:document-units="mm"
     inkscape:current-layer="text892-2-1"
     showgrid="false"
     showguides="true"
     inkscape:guide-bbox="true"
     inkscape:window-width="1920"
     inkscape:window-height="966"
     inkscape:window-x="0"
     inkscape:window-y="27"
     inkscape:window-maximized="1">
    <inkscape:grid
       type="xygrid"
       id="grid4639" />
  </sodipodi:namedview>
  <metadata
     id="metadata5">
    <rdf:RDF>
      <cc:Work
         rdf:about="">
        <dc:format>image/svg+xml</dc:format>
        <dc:type
           rdf:resource="http://purl.org/dc/dcmitype/StillImage" />
        <dc:title></dc:title>
      </cc:Work>
    </rdf:RDF>
  </metadata>
  <g
     inkscape:label="Layer 1"
     inkscape:groupmode="layer"
     id="layer1"
     transform="translate(0,-236)">
    <circle
       style="opacity:1;vector-effect:none;fill:none;fill-opacity:1;stroke:#000000;stroke-width:0.35545203;stroke-linecap:butt;stroke-linejoin:miter;stroke-miterlimit:4;stroke-dasharray:none;stroke-dashoffset:0;stroke-opacity:1"
       id="path815"
       cx="42.917419"
       cy="251.01323"
       r="4.5392947" />
    <circle
       style="opacity:1;vector-effect:none;fill:none;fill-opacity:1;stroke:#000000;stroke-width:0.35545203;stroke-linecap:butt;stroke-linejoin:miter;stroke-miterlimit:4;stroke-dasharray:none;stroke-dashoffset:0;stroke-opacity:1"
       id="path815-7"
       cx="67.818115"
       cy="250.96443"
       r="4.5392947" />
    <circle
       style="opacity:1;vector-effect:none;fill:none;fill-opacity:1;stroke:#000000;stroke-width:0.35545203;stroke-linecap:butt;stroke-linejoin:miter;stroke-miterlimit:4;stroke-dasharray:none;stroke-dashoffset:0;stroke-opacity:1"
       id="path815-7-5"
       cx="54.385529"
       cy="283.79974"
       r="4.5392947" />
    <path
       style="fill:none;stroke:#000000;stroke-width:0.36010069;stroke-linecap:butt;stroke-linejoin:miter;stroke-miterlimit:4;stroke-dasharray:none;stroke-opacity:1"
       d="m 44.250877,255.59165 7.94729,24.14575"
       id="path886"
       inkscape:connector-curvature="0"
       sodipodi:nodetypes="cc" />
    <path
       style="fill:none;stroke:#000000;stroke-width:0.36010069;stroke-linecap:butt;stroke-linejoin:miter;stroke-miterlimit:4;stroke-dasharray:none;stroke-opacity:1"
       d="m 56.802881,279.89759 9.575296,-24.47486"
       id="path888"
       inkscape:connector-curvature="0"
       sodipodi:nodetypes="cc" />
    <g
       aria-label="B"
       style="font-style:normal;font-weight:normal;font-size:5.62104082px;line-height:1.25;font-family:sans-serif;letter-spacing:0px;word-spacing:0px;fill:#000000;fill-opacity:1;stroke:none;stroke-width:0.16863123"
       id="text892">
      <path
         d="m 40.813676,252.5518 q -0.05489,0 -0.05489,-0.0741 0.0027,-0.0137 0.01098,-0.0467 0.0082,-0.0329 0.02196,-0.0549 0.01372,-0.022 0.04117,-0.022 0.159189,0 0.277209,-0.008 0.11802,-0.008 0.20036,-0.0302 0.06587,-0.0247 0.107041,-0.15095 l 0.768502,-3.08773 q 0.01098,-0.0549 0.01098,-0.0769 0,-0.0604 -0.06587,-0.0686 -0.107042,-0.022 -0.406208,-0.022 -0.05489,0 -0.05489,-0.0741 0.0027,-0.0137 0.01098,-0.0467 0.0082,-0.0357 0.02196,-0.0549 0.01647,-0.022 0.03842,-0.022 h 2.014573 q 0.183891,0 0.362293,0.0467 0.181147,0.0439 0.332103,0.14272 0.1537,0.0988 0.241529,0.24702 0.09057,0.14547 0.09057,0.34034 0,0.21133 -0.109786,0.39248 -0.107041,0.18115 -0.279954,0.31563 -0.170168,0.13449 -0.370527,0.22232 -0.197615,0.0851 -0.414442,0.12626 0.1537,0 0.310145,0.0604 0.15919,0.0604 0.282699,0.16468 0.123509,0.10429 0.197614,0.24976 0.07685,0.14547 0.07685,0.31289 0,0.33759 -0.23604,0.61755 -0.23604,0.27995 -0.595589,0.44188 -0.356804,0.15919 -0.691651,0.15919 z m 1.034733,-0.24153 q 0,0.0439 0.192125,0.0439 h 0.804182 q 0.274465,0 0.526973,-0.15096 0.252508,-0.1537 0.403463,-0.4062 0.153701,-0.25251 0.153701,-0.52698 0,-0.16742 -0.07136,-0.31563 -0.06862,-0.15096 -0.20036,-0.23604 -0.131743,-0.0878 -0.301911,-0.0878 h -1.095115 l -0.38974,1.55622 q -0.02196,0.0769 -0.02196,0.1235 z m 0.450122,-1.82793 h 0.853586 q 0.268976,0 0.521483,-0.13723 0.255253,-0.13724 0.414442,-0.37328 0.161934,-0.23604 0.161934,-0.49952 0,-0.24428 -0.1537,-0.40347 -0.150956,-0.15919 -0.392485,-0.15919 h -0.771246 q -0.150956,0 -0.203104,0.0274 -0.05215,0.0275 -0.08783,0.16468 z"
         style="font-style:normal;font-variant:normal;font-weight:normal;font-stretch:normal;font-size:5.62104082px;font-family:cmmi10;-inkscape-font-specification:cmmi10;stroke-width:0.16863123"
         id="path980"
         inkscape:connector-curvature="0" />
    </g>
    <g
       aria-label="C"
       style="font-style:normal;font-weight:normal;font-size:5.62104082px;line-height:1.25;font-family:sans-serif;letter-spacing:0px;word-spacing:0px;fill:#000000;fill-opacity:1;stroke:none;stroke-width:0.16863123"
       id="text892-5">
      <path
         d="m 66.540377,251.4467 q 0,0.33759 0.128998,0.59559 0.131743,0.25525 0.378762,0.40072 0.249763,0.14272 0.587354,0.14272 0.35406,0 0.680673,-0.18115 0.329358,-0.18114 0.559909,-0.48305 0.233295,-0.30466 0.318379,-0.645 0.01098,-0.0329 0.04391,-0.0329 h 0.06862 q 0.02196,0 0.03568,0.0165 0.01372,0.0137 0.01372,0.0329 0,0.005 -0.0055,0.0165 -0.09606,0.38974 -0.373272,0.73282 -0.274465,0.34034 -0.658716,0.5407 -0.384251,0.20036 -0.790459,0.20036 -0.439144,0 -0.787714,-0.19762 -0.34857,-0.19761 -0.543441,-0.54893 -0.192125,-0.35131 -0.192125,-0.7932 0,-0.47208 0.211338,-0.93318 0.211338,-0.46385 0.568142,-0.8234 0.356805,-0.36229 0.812416,-0.57637 0.458357,-0.21409 0.927692,-0.21409 0.186636,0 0.356804,0.0576 0.170168,0.0549 0.315635,0.17017 0.145466,0.11527 0.238784,0.26623 l 0.444633,-0.48306 q 0,-0.011 0.02745,-0.011 h 0.03293 q 0.02196,0 0.03568,0.0192 0.01372,0.0192 0.01372,0.0384 l -0.381506,1.51779 q 0,0.0384 -0.04391,0.0384 h -0.101552 q -0.04391,0 -0.04391,-0.0631 0.02196,-0.12351 0.02196,-0.29642 0,-0.27447 -0.09332,-0.516 -0.09332,-0.24427 -0.290932,-0.39248 -0.194871,-0.14821 -0.477569,-0.14821 -0.458357,0 -0.839863,0.23055 -0.381506,0.23055 -0.647737,0.60657 -0.263486,0.37327 -0.408953,0.83162 -0.142721,0.45562 -0.142721,0.88378 z"
         style="font-style:normal;font-variant:normal;font-weight:normal;font-stretch:normal;font-size:5.62104082px;font-family:cmmi10;-inkscape-font-specification:cmmi10;stroke-width:0.16863123"
         id="path1070"
         inkscape:connector-curvature="0" />
    </g>
    <g
       aria-label="A’ "
       style="font-style:normal;font-weight:normal;font-size:5.62104082px;line-height:1.25;font-family:sans-serif;letter-spacing:0px;word-spacing:0px;fill:#000000;fill-opacity:1;stroke:none;stroke-width:0.16863123"
       id="text892-5-4">
      <path
         d="m 111.84018,252.82819 q -0.0549,0 -0.0549,-0.0741 0.022,-0.12351 0.0714,-0.12351 0.22781,0 0.39249,-0.0906 0.16742,-0.0906 0.28819,-0.27996 0.011,-0.011 0.011,-0.011 l 2.00634,-3.38416 q 0.0439,-0.0604 0.10704,-0.0604 h 0.0741 q 0.0165,0 0.0329,0.008 0.0165,0.005 0.0274,0.022 0.0137,0.0137 0.0137,0.0302 l 0.34034,3.63117 q 0,0.0247 0.0247,0.0741 0.0549,0.0604 0.41993,0.0604 0.0576,0 0.0576,0.0741 -0.0192,0.0741 -0.0329,0.0988 -0.011,0.0247 -0.0631,0.0247 h -1.40526 q -0.0521,0 -0.0521,-0.0741 0.0302,-0.12351 0.0741,-0.12351 0.44463,0 0.47208,-0.15095 l -0.0851,-0.9277 h -1.38605 l -0.45012,0.75478 q -0.0412,0.0604 -0.0412,0.13998 0,0.0988 0.0933,0.14272 0.0961,0.0412 0.21134,0.0412 0.0549,0 0.0549,0.0741 -0.0192,0.0796 -0.0302,0.10155 -0.011,0.022 -0.0631,0.022 z m 1.44369,-1.47388 h 1.2543 l -0.16742,-1.8197 z"
         style="font-style:normal;font-variant:normal;font-weight:normal;font-stretch:normal;font-size:5.62104082px;font-family:cmmi10;-inkscape-font-specification:cmmi10;stroke-width:0.16863123"
         id="path1095"
         inkscape:connector-curvature="0" />
      <path
         d="m 116.51707,248.73043 h 0.57912 v 0.41718 l -0.45013,0.87554 h -0.35405 l 0.22506,-0.87554 z"
         style="font-style:normal;font-variant:normal;font-weight:normal;font-stretch:normal;font-size:5.62104082px;font-family:cmmi10;-inkscape-font-specification:cmmi10;stroke-width:0.16863123"
         id="path1097"
         inkscape:connector-curvature="0" />
    </g>
    <g
       aria-label="A "
       style="font-style:normal;font-weight:normal;font-size:5.62104082px;line-height:1.25;font-family:sans-serif;letter-spacing:0px;word-spacing:0px;fill:#000000;fill-opacity:1;stroke:none;stroke-width:0.16863123"
       id="text892-5-4-5">
      <path
         d="m 52.191747,285.53885 q -0.05489,0 -0.05489,-0.0741 0.02196,-0.12351 0.07136,-0.12351 0.227806,0 0.392485,-0.0906 0.167423,-0.0906 0.288188,-0.27995 0.01098,-0.011 0.01098,-0.011 l 2.006338,-3.38415 q 0.04391,-0.0604 0.107041,-0.0604 h 0.07411 q 0.01647,0 0.03294,0.008 0.01647,0.005 0.02745,0.022 0.01372,0.0137 0.01372,0.0302 l 0.340337,3.63117 q 0,0.0247 0.0247,0.0741 0.05489,0.0604 0.419931,0.0604 0.05764,0 0.05764,0.0741 -0.01921,0.0741 -0.03294,0.0988 -0.01098,0.0247 -0.06313,0.0247 h -1.40526 q -0.05215,0 -0.05215,-0.0741 0.03019,-0.12351 0.07411,-0.12351 0.444633,0 0.472079,-0.15095 l -0.08508,-0.92769 h -1.386047 l -0.450123,0.75478 q -0.04117,0.0604 -0.04117,0.13997 0,0.0988 0.09332,0.14272 0.09606,0.0412 0.211338,0.0412 0.05489,0 0.05489,0.0741 -0.01921,0.0796 -0.03019,0.10155 -0.01098,0.022 -0.06313,0.022 z m 1.443685,-1.47388 h 1.254305 l -0.167424,-1.8197 z"
         style="font-style:normal;font-variant:normal;font-weight:normal;font-stretch:normal;font-size:5.62104082px;font-family:cmmi10;-inkscape-font-specification:cmmi10;stroke-width:0.16863123"
         id="path1073"
         inkscape:connector-curvature="0" />
    </g>
    <circle
       style="opacity:1;vector-effect:none;fill:none;fill-opacity:1;stroke:#000000;stroke-width:0.35545203;stroke-linecap:butt;stroke-linejoin:miter;stroke-miterlimit:4;stroke-dasharray:none;stroke-dashoffset:0;stroke-opacity:1"
       id="path815-3"
       cx="-125.58917"
       cy="-283.95319"
       r="4.5392947"
       transform="scale(-1)" />
    <circle
       style="opacity:1;vector-effect:none;fill:none;fill-opacity:1;stroke:#000000;stroke-width:0.35545203;stroke-linecap:butt;stroke-linejoin:miter;stroke-miterlimit:4;stroke-dasharray:none;stroke-dashoffset:0;stroke-opacity:1"
       id="path815-7-6"
       cx="-100.68872"
       cy="-284.00198"
       r="4.5392947"
       transform="scale(-1)" />
    <circle
       style="opacity:1;vector-effect:none;fill:none;fill-opacity:1;stroke:#000000;stroke-width:0.35545203;stroke-linecap:butt;stroke-linejoin:miter;stroke-miterlimit:4;stroke-dasharray:none;stroke-dashoffset:0;stroke-opacity:1"
       id="path815-7-5-8"
       cx="-114.12119"
       cy="-251.16666"
       r="4.5392947"
       transform="scale(-1)" />
    <path
       style="fill:none;stroke:#000000;stroke-width:0.36010072;stroke-linecap:butt;stroke-linejoin:miter;stroke-miterlimit:4;stroke-dasharray:none;stroke-opacity:1"
       d="M 124.25604,279.37474 116.30875,255.229"
       id="path886-0"
       inkscape:connector-curvature="0"
       sodipodi:nodetypes="cc" />
    <path
       style="fill:none;stroke:#000000;stroke-width:0.36010072;stroke-linecap:butt;stroke-linejoin:miter;stroke-miterlimit:4;stroke-dasharray:none;stroke-opacity:1"
       d="m 111.70404,254.9827 -9.57532,24.56096"
       id="path888-2"
       inkscape:connector-curvature="0"
       sodipodi:nodetypes="cc" />
    <g
       aria-label="B’ "
       style="font-style:normal;font-weight:normal;font-size:5.62104082px;line-height:1.25;font-family:sans-serif;letter-spacing:0px;word-spacing:0px;fill:#000000;fill-opacity:1;stroke:none;stroke-width:0.16863123"
       id="text892-5-4-50">
      <path
         d="m 98.346605,285.64267 q -0.05489,0 -0.05489,-0.0741 0.0027,-0.0137 0.01098,-0.0466 0.0082,-0.0329 0.02196,-0.0549 0.01372,-0.022 0.04117,-0.022 0.15919,0 0.27721,-0.008 0.11802,-0.008 0.200359,-0.0302 0.06587,-0.0247 0.107041,-0.15096 l 0.768502,-3.08773 q 0.01098,-0.0549 0.01098,-0.0768 0,-0.0604 -0.06587,-0.0686 -0.107041,-0.022 -0.406208,-0.022 -0.05489,0 -0.05489,-0.0741 0.0027,-0.0137 0.01098,-0.0467 0.0082,-0.0357 0.02196,-0.0549 0.01647,-0.022 0.03843,-0.022 h 2.014571 q 0.18389,0 0.36229,0.0466 0.18115,0.0439 0.3321,0.14273 0.1537,0.0988 0.24153,0.24702 0.0906,0.14546 0.0906,0.34033 0,0.21134 -0.10979,0.39249 -0.10704,0.18114 -0.27995,0.31563 -0.17017,0.13449 -0.37053,0.22232 -0.19762,0.0851 -0.41444,0.12625 0.1537,0 0.31014,0.0604 0.15919,0.0604 0.2827,0.16468 0.12351,0.1043 0.19762,0.24977 0.0768,0.14546 0.0768,0.31289 0,0.33759 -0.23604,0.61754 -0.23604,0.27996 -0.59559,0.44189 -0.35681,0.15919 -0.69165,0.15919 z m 1.034732,-0.24153 q 0,0.0439 0.192126,0.0439 h 0.804177 q 0.27447,0 0.52698,-0.15095 0.2525,-0.1537 0.40346,-0.40621 0.1537,-0.25251 0.1537,-0.52697 0,-0.16742 -0.0714,-0.31564 -0.0686,-0.15095 -0.20036,-0.23604 -0.13174,-0.0878 -0.30191,-0.0878 h -1.095115 l -0.389741,1.55621 q -0.02196,0.0769 -0.02196,0.12351 z m 0.450123,-1.82794 h 0.85359 q 0.26897,0 0.52148,-0.13723 0.25525,-0.13723 0.41444,-0.37327 0.16193,-0.23604 0.16193,-0.49953 0,-0.24427 -0.1537,-0.40346 -0.15095,-0.15919 -0.39248,-0.15919 h -0.77125 q -0.15095,0 -0.2031,0.0274 -0.0521,0.0274 -0.0878,0.16468 z"
         style="font-style:normal;font-variant:normal;font-weight:normal;font-stretch:normal;font-size:5.62104082px;font-family:cmmi10;-inkscape-font-specification:cmmi10;stroke-width:0.16863123"
         id="path1090"
         inkscape:connector-curvature="0" />
      <path
         d="m 103.03995,281.54491 h 0.57913 v 0.41719 l -0.45013,0.87554 h -0.35406 l 0.22506,-0.87554 z"
         style="font-style:normal;font-variant:normal;font-weight:normal;font-stretch:normal;font-size:5.62104082px;font-family:cmmi10;-inkscape-font-specification:cmmi10;stroke-width:0.16863123"
         id="path1092"
         inkscape:connector-curvature="0" />
    </g>
    <g
       aria-label="C’ "
       inkscape:transform-center-x="-1.3512907"
       inkscape:transform-center-y="-6.1237183e-06"
       style="font-style:normal;font-weight:normal;font-size:5.62104082px;line-height:1.25;font-family:sans-serif;letter-spacing:0px;word-spacing:0px;fill:#000000;fill-opacity:1;stroke:none;stroke-width:0.16863123"
       id="text892-5-4-50-6">
      <path
         d="m 123.51239,284.42816 q 0,0.33759 0.129,0.59559 0.13174,0.25525 0.37876,0.40072 0.24977,0.14272 0.58736,0.14272 0.35406,0 0.68067,-0.18115 0.32936,-0.18114 0.55991,-0.48305 0.23329,-0.30466 0.31838,-0.645 0.011,-0.0329 0.0439,-0.0329 h 0.0686 q 0.022,0 0.0357,0.0165 0.0137,0.0137 0.0137,0.0329 0,0.005 -0.005,0.0165 -0.0961,0.38974 -0.37327,0.73282 -0.27446,0.34034 -0.65872,0.5407 -0.38425,0.20036 -0.79045,0.20036 -0.43915,0 -0.78772,-0.19762 -0.34857,-0.19761 -0.54344,-0.54893 -0.19212,-0.35131 -0.19212,-0.7932 0,-0.47208 0.21133,-0.93318 0.21134,-0.46385 0.56815,-0.8234 0.3568,-0.36229 0.81241,-0.57637 0.45836,-0.21409 0.92769,-0.21409 0.18664,0 0.35681,0.0576 0.17017,0.0549 0.31563,0.17017 0.14547,0.11527 0.23879,0.26623 l 0.44463,-0.48306 q 0,-0.011 0.0275,-0.011 h 0.0329 q 0.022,0 0.0357,0.0192 0.0137,0.0192 0.0137,0.0384 l -0.38151,1.51779 q 0,0.0384 -0.0439,0.0384 h -0.10155 q -0.0439,0 -0.0439,-0.0631 0.022,-0.12351 0.022,-0.29642 0,-0.27447 -0.0933,-0.516 -0.0933,-0.24427 -0.29094,-0.39248 -0.19487,-0.14821 -0.47756,-0.14821 -0.45836,0 -0.83987,0.23055 -0.3815,0.23055 -0.64773,0.60657 -0.26349,0.37327 -0.40896,0.83162 -0.14272,0.45562 -0.14272,0.88378 z"
         style="font-style:normal;font-variant:normal;font-weight:normal;font-stretch:normal;font-size:5.62104082px;font-family:cmmi10;-inkscape-font-specification:cmmi10;stroke-width:0.16863123"
         id="path1085"
         inkscape:connector-curvature="0" />
      <path
         d="m 127.41803,281.54354 h 0.57912 v 0.41718 l -0.45012,0.87555 h -0.35406 l 0.22506,-0.87555 z"
         style="font-style:normal;font-variant:normal;font-weight:normal;font-stretch:normal;font-size:5.62104082px;font-family:cmmi10;-inkscape-font-specification:cmmi10;stroke-width:0.16863123"
         id="path1087"
         inkscape:connector-curvature="0" />
    </g>
    <text
       xml:space="preserve"
       style="font-style:normal;font-variant:normal;font-weight:normal;font-stretch:normal;font-size:10.58333302px;line-height:1.25;font-family:cmmi10;-inkscape-font-specification:cmmi10;letter-spacing:0px;word-spacing:0px;fill:#000000;fill-opacity:1;stroke:none;stroke-width:0.26458332"
       x="44.52367"
       y="218.28851"
       id="text4792"><tspan
         sodipodi:role="line"
         id="tspan4790"
         x="44.52367"
         y="227.8101"
         style="font-style:normal;font-variant:normal;font-weight:normal;font-stretch:normal;font-family:cmmi10;-inkscape-font-specification:cmmi10;stroke-width:0.26458332" /></text>
    <g
       aria-label="+"
       transform="scale(1.2613807,0.79278207)"
       style="font-style:normal;font-variant:normal;font-weight:normal;font-stretch:normal;font-size:9.7200985px;line-height:1.25;font-family:cmmi10;-inkscape-font-specification:cmmi10;letter-spacing:0px;word-spacing:0px;fill:#000000;fill-opacity:1;stroke:none;stroke-width:0.24300249"
       id="text4800">
      <path
         d="m 67.114588,335.80894 q -0.08068,0 -0.132892,-0.0617 -0.05221,-0.0617 -0.05221,-0.13289 0,-0.0712 0.05221,-0.13289 0.05221,-0.0617 0.132892,-0.0617 h 8.338971 q 0.03322,0 0.0617,0.0285 0.03322,0.0237 0.03322,0.057 v 0.12814 q 0,0.0427 -0.04746,0.0664 -0.469868,0.27053 -0.859052,0.63598 -0.389184,0.36545 -0.688191,0.81634 -0.299006,0.45088 -0.484106,0.93024 -0.03322,0.0712 -0.08543,0.0712 h -0.19459 q -0.09967,0 -0.09967,-0.12814 0.450883,-1.33367 1.556734,-2.21645 z"
         style="stroke-width:0.24300249"
         id="path876"
         inkscape:connector-curvature="0" />
    </g>
    <g
       aria-label="+"
       transform="scale(1.2613807,-0.79278207)"
       style="font-style:normal;font-variant:normal;font-weight:normal;font-stretch:normal;font-size:9.7200985px;line-height:1.25;font-family:cmmi10;-inkscape-font-specification:cmmi10;letter-spacing:0px;word-spacing:0px;fill:#000000;fill-opacity:1;stroke:none;stroke-width:0.24300249"
       id="text4800-2">
      <path
         d="m 67.128199,-335.37102 q -0.08068,0 -0.132892,-0.0617 -0.05221,-0.0617 -0.05221,-0.13289 0,-0.0712 0.05221,-0.1329 0.05221,-0.0617 0.132892,-0.0617 h 8.338971 q 0.03322,0 0.0617,0.0285 0.03322,0.0237 0.03322,0.057 v 0.12815 q 0,0.0427 -0.04746,0.0664 -0.469868,0.27053 -0.859052,0.63598 -0.389184,0.36545 -0.688191,0.81634 -0.299007,0.45088 -0.484106,0.93024 -0.03322,0.0712 -0.08543,0.0712 H 73.20326 q -0.09967,0 -0.09967,-0.12814 0.450883,-1.33367 1.556734,-2.21645 z"
         style="stroke-width:0.24300249"
         id="path873"
         inkscape:connector-curvature="0" />
    </g>
    <circle
       style="opacity:1;vector-effect:none;fill:none;fill-opacity:1;stroke:#000000;stroke-width:0.35545203;stroke-linecap:butt;stroke-linejoin:miter;stroke-miterlimit:4;stroke-dasharray:0.35545203, 0.35545203;stroke-dashoffset:0;stroke-opacity:1"
       id="path815-9"
       cx="76.216087"
       cy="283.46191"
       r="4.5392947" />
    <path
       style="fill:none;stroke:#000000;stroke-width:0.36010069;stroke-linecap:butt;stroke-linejoin:miter;stroke-miterlimit:4;stroke-dasharray:0.36010069, 0.36010069;stroke-dashoffset:0;stroke-opacity:1"
       d="m 47.122357,252.72017 c 0,0 13.58765,5.09083 19.48864,12.33036 5.900976,7.23952 7.813156,14.22549 7.813156,14.22549"
       id="path4861"
       inkscape:connector-curvature="0"
       sodipodi:nodetypes="czc" />
    <circle
       style="opacity:1;vector-effect:none;fill:none;fill-opacity:1;stroke:#000000;stroke-width:0.35545203;stroke-linecap:butt;stroke-linejoin:miter;stroke-miterlimit:4;stroke-dasharray:0.35545203, 0.35545203;stroke-dashoffset:0;stroke-opacity:1"
       id="path815-9-8"
       cx="133.16174"
       cy="251.06311"
       r="4.5392947" />
    <path
       style="fill:none;stroke:#000000;stroke-width:0.36010072;stroke-linecap:butt;stroke-linejoin:miter;stroke-miterlimit:4;stroke-dasharray:0.36010069, 0.36010069;stroke-dashoffset:0;stroke-opacity:1"
       d="m 130.62926,255.48569 c 0,0 -5.07196,13.17589 -11.81527,19.6381 -6.74333,6.46219 -13.55358,7.84164 -13.55358,7.84164"
       id="path4861-3"
       inkscape:connector-curvature="0"
       sodipodi:nodetypes="czc" />
    <circle
       style="opacity:1;vector-effect:none;fill:none;fill-opacity:1;stroke:#000000;stroke-width:0.35545203;stroke-linecap:butt;stroke-linejoin:miter;stroke-miterlimit:4;stroke-dasharray:none;stroke-dashoffset:0;stroke-opacity:1"
       id="path815-36"
       cx="164.00629"
       cy="251.14636"
       r="4.5392947" />
    <circle
       style="opacity:1;vector-effect:none;fill:none;fill-opacity:1;stroke:#000000;stroke-width:0.35545203;stroke-linecap:butt;stroke-linejoin:miter;stroke-miterlimit:4;stroke-dasharray:none;stroke-dashoffset:0;stroke-opacity:1"
       id="path815-7-0"
       cx="188.90698"
       cy="251.09755"
       r="4.5392947" />
    <circle
       style="opacity:1;vector-effect:none;fill:none;fill-opacity:1;stroke:#000000;stroke-width:0.35545203;stroke-linecap:butt;stroke-linejoin:miter;stroke-miterlimit:4;stroke-dasharray:none;stroke-dashoffset:0;stroke-opacity:1"
       id="path815-7-5-5"
       cx="175.4744"
       cy="283.93289"
       r="4.5392947" />
    <path
       style="fill:none;stroke:#000000;stroke-width:0.36010072;stroke-linecap:butt;stroke-linejoin:miter;stroke-miterlimit:4;stroke-dasharray:none;stroke-opacity:1"
       d="m 165.33975,255.46649 7.94729,24.40404"
       id="path886-02"
       inkscape:connector-curvature="0"
       sodipodi:nodetypes="cc" />
    <path
       style="fill:none;stroke:#000000;stroke-width:0.36010072;stroke-linecap:butt;stroke-linejoin:miter;stroke-miterlimit:4;stroke-dasharray:none;stroke-opacity:1"
       d="m 178.0209,280.07377 9.44615,-24.5179"
       id="path888-9"
       inkscape:connector-curvature="0"
       sodipodi:nodetypes="cc" />
    <g
       aria-label="B"
       style="font-style:normal;font-weight:normal;font-size:5.62104082px;line-height:1.25;font-family:sans-serif;letter-spacing:0px;word-spacing:0px;fill:#000000;fill-opacity:1;stroke:none;stroke-width:0.16863123"
       id="text892-4">
      <path
         d="m 161.90254,252.68494 q -0.0549,0 -0.0549,-0.0741 0.003,-0.0137 0.011,-0.0467 0.008,-0.0329 0.022,-0.0549 0.0137,-0.022 0.0412,-0.022 0.15919,0 0.27721,-0.008 0.11802,-0.008 0.20035,-0.0302 0.0659,-0.0247 0.10705,-0.15096 l 0.7685,-3.08773 q 0.011,-0.0549 0.011,-0.0768 0,-0.0604 -0.0659,-0.0686 -0.10704,-0.022 -0.4062,-0.022 -0.0549,0 -0.0549,-0.0741 0.003,-0.0137 0.011,-0.0467 0.008,-0.0357 0.022,-0.0549 0.0165,-0.022 0.0384,-0.022 h 2.01458 q 0.18389,0 0.36229,0.0467 0.18115,0.0439 0.3321,0.14272 0.1537,0.0988 0.24153,0.24702 0.0906,0.14547 0.0906,0.34034 0,0.21134 -0.10979,0.39248 -0.10704,0.18115 -0.27995,0.31564 -0.17017,0.13449 -0.37053,0.22231 -0.19762,0.0851 -0.41444,0.12626 0.1537,0 0.31014,0.0604 0.15919,0.0604 0.2827,0.16468 0.12351,0.1043 0.19761,0.24976 0.0768,0.14547 0.0768,0.31289 0,0.33759 -0.23603,0.61755 -0.23604,0.27995 -0.59559,0.44189 -0.35681,0.15919 -0.69166,0.15919 z m 1.03474,-0.24153 q 0,0.0439 0.19212,0.0439 h 0.80418 q 0.27447,0 0.52698,-0.15095 0.2525,-0.1537 0.40346,-0.40621 0.1537,-0.25251 0.1537,-0.52697 0,-0.16743 -0.0714,-0.31564 -0.0686,-0.15095 -0.20036,-0.23604 -0.13174,-0.0878 -0.30191,-0.0878 h -1.09512 l -0.38974,1.55622 q -0.022,0.0769 -0.022,0.12351 z m 0.45012,-1.82794 h 0.85358 q 0.26898,0 0.52149,-0.13723 0.25525,-0.13723 0.41444,-0.37327 0.16193,-0.23604 0.16193,-0.49953 0,-0.24427 -0.1537,-0.40346 -0.15095,-0.15919 -0.39248,-0.15919 h -0.77125 q -0.15095,0 -0.2031,0.0274 -0.0521,0.0274 -0.0878,0.16468 z"
         style="font-style:normal;font-variant:normal;font-weight:normal;font-stretch:normal;font-size:5.62104082px;font-family:cmmi10;-inkscape-font-specification:cmmi10;stroke-width:0.16863123"
         id="path1082"
         inkscape:connector-curvature="0" />
    </g>
    <g
       aria-label="C"
       style="font-style:normal;font-weight:normal;font-size:5.62104082px;line-height:1.25;font-family:sans-serif;letter-spacing:0px;word-spacing:0px;fill:#000000;fill-opacity:1;stroke:none;stroke-width:0.16863123"
       id="text892-5-5">
      <path
         d="m 187.62924,251.57983 q 0,0.3376 0.129,0.59559 0.13175,0.25526 0.37876,0.40072 0.24977,0.14272 0.58736,0.14272 0.35406,0 0.68067,-0.18114 0.32936,-0.18115 0.55991,-0.48306 0.2333,-0.30466 0.31838,-0.64499 0.011,-0.0329 0.0439,-0.0329 h 0.0686 q 0.022,0 0.0357,0.0165 0.0137,0.0137 0.0137,0.0329 0,0.005 -0.005,0.0165 -0.0961,0.38974 -0.37327,0.73282 -0.27446,0.34034 -0.65871,0.5407 -0.38425,0.20036 -0.79046,0.20036 -0.43915,0 -0.78772,-0.19762 -0.34857,-0.19761 -0.54344,-0.54893 -0.19212,-0.35131 -0.19212,-0.7932 0,-0.47208 0.21134,-0.93318 0.21133,-0.46385 0.56814,-0.8234 0.3568,-0.36229 0.81241,-0.57637 0.45836,-0.21408 0.92769,-0.21408 0.18664,0 0.35681,0.0576 0.17017,0.0549 0.31563,0.17017 0.14547,0.11528 0.23879,0.26623 l 0.44463,-0.48306 q 0,-0.011 0.0274,-0.011 h 0.0329 q 0.022,0 0.0357,0.0192 0.0137,0.0192 0.0137,0.0384 l -0.38151,1.51779 q 0,0.0384 -0.0439,0.0384 h -0.10156 q -0.0439,0 -0.0439,-0.0631 0.022,-0.12351 0.022,-0.29642 0,-0.27446 -0.0933,-0.51599 -0.0933,-0.24428 -0.29093,-0.39249 -0.19487,-0.14821 -0.47757,-0.14821 -0.45836,0 -0.83986,0.23055 -0.38151,0.23055 -0.64774,0.60657 -0.26349,0.37327 -0.40895,0.83163 -0.14273,0.45561 -0.14273,0.88377 z"
         style="font-style:normal;font-variant:normal;font-weight:normal;font-stretch:normal;font-size:5.62104082px;font-family:cmmi10;-inkscape-font-specification:cmmi10;stroke-width:0.16863123"
         id="path1079"
         inkscape:connector-curvature="0" />
    </g>
    <g
       aria-label="A "
       style="font-style:normal;font-weight:normal;font-size:5.62104082px;line-height:1.25;font-family:sans-serif;letter-spacing:0px;word-spacing:0px;fill:#000000;fill-opacity:1;stroke:none;stroke-width:0.16863123"
       id="text892-5-4-5-4">
      <path
         d="m 173.28061,285.672 q -0.0549,0 -0.0549,-0.0741 0.022,-0.12351 0.0714,-0.12351 0.22781,0 0.39249,-0.0906 0.16742,-0.0906 0.28819,-0.27996 0.011,-0.011 0.011,-0.011 l 2.00634,-3.38416 q 0.0439,-0.0604 0.10704,-0.0604 h 0.0741 q 0.0165,0 0.0329,0.008 0.0165,0.005 0.0275,0.022 0.0137,0.0137 0.0137,0.0302 l 0.34034,3.63117 q 0,0.0247 0.0247,0.0741 0.0549,0.0604 0.41993,0.0604 0.0576,0 0.0576,0.0741 -0.0192,0.0741 -0.0329,0.0988 -0.011,0.0247 -0.0631,0.0247 h -1.40526 q -0.0522,0 -0.0522,-0.0741 0.0302,-0.12351 0.0741,-0.12351 0.44463,0 0.47208,-0.15095 l -0.0851,-0.92769 h -1.38605 l -0.45012,0.75477 q -0.0412,0.0604 -0.0412,0.13998 0,0.0988 0.0933,0.14272 0.0961,0.0412 0.21134,0.0412 0.0549,0 0.0549,0.0741 -0.0192,0.0796 -0.0302,0.10155 -0.011,0.022 -0.0631,0.022 z m 1.44369,-1.47388 h 1.2543 l -0.16742,-1.8197 z"
         style="font-style:normal;font-variant:normal;font-weight:normal;font-stretch:normal;font-size:5.62104082px;font-family:cmmi10;-inkscape-font-specification:cmmi10;stroke-width:0.16863123"
         id="path1076"
         inkscape:connector-curvature="0" />
    </g>
    <circle
       style="opacity:1;vector-effect:none;fill:none;fill-opacity:1;stroke:#000000;stroke-width:0.35545203;stroke-linecap:butt;stroke-linejoin:miter;stroke-miterlimit:4;stroke-dasharray:0.35545203, 0.35545203;stroke-dashoffset:0;stroke-opacity:1"
       id="path815-9-1"
       cx="197.30499"
       cy="283.59506"
       r="4.5392947" />
    <path
       style="fill:none;stroke:#000000;stroke-width:0.36010072;stroke-linecap:butt;stroke-linejoin:miter;stroke-miterlimit:4;stroke-dasharray:0.36010069, 0.36010069;stroke-dashoffset:0;stroke-opacity:1"
       d="m 168.21123,252.8533 c 0,0 13.58765,5.09084 19.48863,12.33036 5.90099,7.23953 7.81318,14.2255 7.81318,14.2255"
       id="path4861-4"
       inkscape:connector-curvature="0"
       sodipodi:nodetypes="czc" />
    <g
       aria-label="+"
       transform="scale(1.2613807,0.79278207)"
       style="font-style:normal;font-variant:normal;font-weight:normal;font-stretch:normal;font-size:9.7200985px;line-height:1.25;font-family:cmmi10;-inkscape-font-specification:cmmi10;letter-spacing:0px;word-spacing:0px;fill:#000000;fill-opacity:1;stroke:none;stroke-width:0.24300249"
       id="text4800-6">
      <path
         d="m 115.95658,336.09126 q -0.0807,0 -0.1329,-0.0617 -0.0522,-0.0617 -0.0522,-0.13289 0,-0.0712 0.0522,-0.1329 0.0522,-0.0617 0.1329,-0.0617 h 8.33897 q 0.0332,0 0.0617,0.0285 0.0332,0.0237 0.0332,0.057 v 0.12815 q 0,0.0427 -0.0475,0.0664 -0.46987,0.27053 -0.85905,0.63598 -0.38919,0.36545 -0.68819,0.81634 -0.29901,0.45088 -0.48411,0.93024 -0.0332,0.0712 -0.0854,0.0712 h -0.19459 q -0.0997,0 -0.0997,-0.12814 0.45088,-1.33367 1.55673,-2.21645 z"
         style="stroke-width:0.24300249"
         id="path882"
         inkscape:connector-curvature="0" />
    </g>
    <g
       aria-label="+"
       transform="scale(1.2613807,-0.79278207)"
       style="font-style:normal;font-variant:normal;font-weight:normal;font-stretch:normal;font-size:9.7200985px;line-height:1.25;font-family:cmmi10;-inkscape-font-specification:cmmi10;letter-spacing:0px;word-spacing:0px;fill:#000000;fill-opacity:1;stroke:none;stroke-width:0.24300249"
       id="text4800-2-4">
      <path
         d="m 115.97019,-335.65334 q -0.0807,0 -0.1329,-0.0617 -0.0522,-0.0617 -0.0522,-0.13289 0,-0.0712 0.0522,-0.13289 0.0522,-0.0617 0.1329,-0.0617 h 8.33897 q 0.0332,0 0.0617,0.0285 0.0332,0.0237 0.0332,0.057 v 0.12814 q 0,0.0427 -0.0475,0.0665 -0.46987,0.27053 -0.85905,0.63598 -0.38919,0.36545 -0.68819,0.81634 -0.29901,0.45088 -0.48411,0.93024 -0.0332,0.0712 -0.0854,0.0712 h -0.19459 q -0.0997,0 -0.0997,-0.12814 0.45088,-1.33367 1.55673,-2.21645 z"
         style="stroke-width:0.24300249"
         id="path879"
         inkscape:connector-curvature="0" />
    </g>
    <g
       aria-label="R"
       style="font-style:normal;font-weight:normal;font-size:4.23333311px;line-height:1.25;font-family:sans-serif;letter-spacing:0px;word-spacing:0px;fill:#000000;fill-opacity:1;stroke:none;stroke-width:0.16863123"
       id="text892-2">
      <path
         d="m 54.458537,242.7392 q -0.04134,0 -0.04134,-0.0558 0.0021,-0.0103 0.0083,-0.0351 0.0062,-0.0269 0.01654,-0.0413 0.0124,-0.0165 0.02894,-0.0165 0.258382,0 0.361735,-0.0289 0.05374,-0.0186 0.07855,-0.11369 l 0.580843,-2.32544 q 0.0083,-0.0413 0.0083,-0.0579 0,-0.0455 -0.04961,-0.0517 -0.08062,-0.0165 -0.305924,-0.0165 -0.04134,0 -0.04134,-0.0558 0.0021,-0.0103 0.0083,-0.0351 0.0062,-0.0269 0.01654,-0.0413 0.0124,-0.0165 0.02894,-0.0165 h 1.283643 q 0.152962,0 0.318326,0.0351 0.165365,0.0351 0.303858,0.11162 0.138493,0.0744 0.227376,0.20051 0.08888,0.12402 0.08888,0.29145 0,0.21291 -0.14056,0.38034 -0.14056,0.16743 -0.355534,0.28112 -0.214974,0.11162 -0.417546,0.1571 0.165365,0.0599 0.270785,0.19224 0.10542,0.13022 0.10542,0.30179 0,0.0227 -0.0021,0.0351 0,0.0103 -0.0021,0.0248 l -0.03307,0.3762 q -0.0041,0.0827 -0.0083,0.14056 -0.0041,0.0579 -0.0041,0.093 0,0.11576 0.03307,0.18604 0.03514,0.0682 0.136426,0.0682 0.132292,0 0.23151,-0.12196 0.101286,-0.12402 0.132292,-0.26871 0.0186,-0.0372 0.04134,-0.0372 h 0.03927 q 0.04134,0 0.04134,0.0558 -0.03101,0.12196 -0.09922,0.23151 -0.06615,0.10955 -0.169499,0.17983 -0.101286,0.0703 -0.221175,0.0703 -0.248047,0 -0.423747,-0.10955 -0.173633,-0.11162 -0.173633,-0.34727 0,-0.0889 0.01654,-0.15709 l 0.09302,-0.37621 q 0.01654,-0.0517 0.01654,-0.11989 0,-0.1757 -0.119889,-0.27491 -0.117823,-0.10129 -0.297657,-0.10129 h -0.520898 l -0.279053,1.11828 q -0.01033,0.0351 -0.01033,0.0599 0,0.0434 0.05168,0.0496 0.08062,0.0165 0.303858,0.0165 0.04341,0 0.04341,0.0558 -0.01447,0.0599 -0.02274,0.0765 -0.0083,0.0165 -0.04961,0.0165 z m 1.114144,-1.50275 h 0.469222 q 0.460953,0 0.694531,-0.23358 0.107487,-0.10749 0.169498,-0.27285 0.06408,-0.16743 0.06408,-0.3328 0,-0.1571 -0.09302,-0.24598 -0.09095,-0.0889 -0.227377,-0.12196 -0.134358,-0.0331 -0.297656,-0.0331 h -0.283187 q -0.115755,0 -0.152962,0.0207 -0.03721,0.0186 -0.06821,0.12403 z"
         style="font-style:normal;font-variant:normal;font-weight:normal;font-stretch:normal;font-size:4.23333311px;font-family:cmmi10;-inkscape-font-specification:cmmi10;stroke-width:0.16863123"
         id="path1067"
         inkscape:connector-curvature="0" />
    </g>
    <path
       style="fill:none;stroke:#000000;stroke-width:0.39491925;stroke-linecap:butt;stroke-linejoin:miter;stroke-miterlimit:4;stroke-dasharray:none;stroke-opacity:1"
       d="M 0.61359653,244.27798 H 203.34192"
       id="path5018"
       inkscape:connector-curvature="0" />
    <g
       aria-label="Hand of thrown passes:"
       style="font-style:normal;font-weight:normal;font-size:5.62104082px;line-height:1.25;font-family:sans-serif;letter-spacing:0px;word-spacing:0px;fill:#000000;fill-opacity:1;stroke:none;stroke-width:0.16863123"
       id="text892-2-1">
      <path
         d="m 0.95707114,242.71024 v -0.14883 q 0.43614906,0 0.43614906,-0.13436 v -2.32544 q 0,-0.13436 -0.43614906,-0.13436 v -0.14883 H 2.2241772 v 0.14883 q -0.4361491,0 -0.4361491,0.13436 v 1.02939 h 1.2485026 v -1.02939 q 0,-0.13436 -0.4361491,-0.13436 v -0.14883 h 1.265039 v 0.14883 q -0.434082,0 -0.434082,0.13436 v 2.32544 q 0,0.13436 0.434082,0.13436 v 0.14883 h -1.265039 v -0.14883 q 0.4361491,0 0.4361491,-0.13436 v -1.14722 H 1.7880281 v 1.14722 q 0,0.13436 0.4361491,0.13436 v 0.14883 z"
         style="font-style:normal;font-variant:normal;font-weight:normal;font-stretch:normal;font-size:4.23333311px;line-height:0;font-family:cmr10;-inkscape-font-specification:cmr10;letter-spacing:0px;direction:ltr;stroke-width:0.16863123"
         id="path1118"
         inkscape:connector-curvature="0" />
      <path
         d="m 4.1713449,242.29476 q 0,-0.25218 0.1984375,-0.40928 0.1984375,-0.15916 0.4754232,-0.22324 0.2790527,-0.0661 0.5291666,-0.0661 v -0.17363 q 0,-0.12196 -0.053743,-0.23565 -0.053744,-0.11575 -0.1550293,-0.1881 -0.1012858,-0.0744 -0.2232421,-0.0744 -0.2811198,0 -0.4278809,0.12609 0.080615,0 0.1322917,0.062 0.053743,0.0599 0.053743,0.14056 0,0.0847 -0.059945,0.14469 -0.059945,0.06 -0.1426269,0.06 -0.084749,0 -0.144694,-0.06 -0.059945,-0.0599 -0.059945,-0.14469 0,-0.22324 0.2025716,-0.33073 0.2025716,-0.10955 0.4464844,-0.10955 0.1715657,0 0.3451985,0.0744 0.1736328,0.0724 0.2831869,0.20877 0.111621,0.13643 0.111621,0.31833 v 0.95291 q 0,0.0827 0.03514,0.15297 0.03514,0.0682 0.109554,0.0682 0.07028,0 0.1033529,-0.0703 0.03514,-0.0703 0.03514,-0.1509 v -0.27078 h 0.124024 v 0.27078 q 0,0.0951 -0.049609,0.18191 -0.049609,0.0847 -0.1343587,0.13642 -0.082682,0.0496 -0.179834,0.0496 -0.1240234,0 -0.2149739,-0.0951 -0.088884,-0.0972 -0.099219,-0.22945 -0.078548,0.15917 -0.2315105,0.25425 -0.1529622,0.093 -0.326595,0.093 -0.1612304,0 -0.3183268,-0.0475 -0.1550293,-0.0476 -0.2604492,-0.14883 -0.1033529,-0.10336 -0.103353,-0.26665 z m 0.3431315,0 q 0,0.14883 0.1095541,0.25011 0.109554,0.10129 0.2583821,0.10129 0.1364258,0 0.2480469,-0.0682 0.1116211,-0.0682 0.1777669,-0.18603 0.066146,-0.11782 0.066146,-0.24805 v -0.44028 q -0.1922363,0 -0.3948079,0.0641 -0.2005045,0.062 -0.3327962,0.19637 -0.1322917,0.13436 -0.1322917,0.33073 z"
         style="font-style:normal;font-variant:normal;font-weight:normal;font-stretch:normal;font-size:4.23333311px;line-height:0;font-family:cmr10;-inkscape-font-specification:cmr10;letter-spacing:0px;direction:ltr;stroke-width:0.16863123"
         id="path1120"
         inkscape:connector-curvature="0" />
      <path
         d="m 6.2446031,242.71024 v -0.14883 q 0.144694,0 0.2377115,-0.0227 0.093018,-0.0227 0.093018,-0.11162 v -1.15549 q 0,-0.11368 -0.03514,-0.16329 -0.033073,-0.0517 -0.097152,-0.062 -0.064079,-0.0124 -0.1984374,-0.0124 v -0.14883 l 0.6139159,-0.0455 v 0.41341 q 0.084749,-0.1819 0.250114,-0.29766 0.1674316,-0.11575 0.363802,-0.11575 0.2935221,0 0.4402832,0.14056 0.1488281,0.14056 0.1488281,0.42995 v 1.01699 q 0,0.0889 0.093018,0.11162 0.093018,0.0227 0.2377116,0.0227 v 0.14883 H 7.4228257 v -0.14883 q 0.144694,0 0.2377115,-0.0227 0.093018,-0.0227 0.093018,-0.11162 v -1.00459 q 0,-0.20671 -0.059945,-0.339 -0.059945,-0.13436 -0.2459798,-0.13436 -0.2459798,0 -0.4051432,0.19637 -0.1570963,0.19637 -0.1570963,0.44649 v 0.83509 q 0,0.0889 0.093018,0.11162 0.093018,0.0227 0.2356445,0.0227 v 0.14883 z"
         style="font-style:normal;font-variant:normal;font-weight:normal;font-stretch:normal;font-size:4.23333311px;line-height:0;font-family:cmr10;-inkscape-font-specification:cmr10;letter-spacing:0px;direction:ltr;stroke-width:0.16863123"
         id="path1122"
         inkscape:connector-curvature="0" />
      <path
         d="m 9.5022857,242.75778 q -0.2501139,0 -0.4568197,-0.13436 -0.2067057,-0.13643 -0.3224609,-0.3576 -0.1136881,-0.22118 -0.1136881,-0.46922 0,-0.25632 0.1240234,-0.47543 0.1260905,-0.22117 0.3410644,-0.3514 0.214974,-0.13022 0.4733561,-0.13022 0.1550293,0 0.2935222,0.0661 0.1384928,0.0641 0.2397789,0.17984 v -0.88057 q 0,-0.11369 -0.03514,-0.1633 -0.03307,-0.0517 -0.097152,-0.062 -0.062012,-0.0124 -0.1963704,-0.0124 v -0.14883 l 0.6263184,-0.0455 v 2.55281 q 0,0.11162 0.03307,0.1633 0.03514,0.0496 0.09715,0.062 0.06408,0.0103 0.198437,0.0103 v 0.14883 l -0.638721,0.0475 v -0.26665 q -0.1095537,0.12609 -0.2604489,0.19637 -0.1508951,0.0703 -0.3059244,0.0703 z m -0.432015,-0.41548 q 0.072347,0.13849 0.1922364,0.22117 0.1219563,0.0827 0.2645833,0.0827 0.1756998,0 0.3224609,-0.10129 0.1467611,-0.10128 0.2191077,-0.26252 v -1.01492 q -0.04961,-0.093 -0.1260901,-0.16536 -0.074414,-0.0744 -0.1694987,-0.11369 -0.093018,-0.0393 -0.1984375,-0.0393 -0.2211751,0 -0.3555338,0.12609 -0.1343588,0.12403 -0.1881023,0.31833 -0.053743,0.1943 -0.053743,0.40721 0,0.1695 0.016536,0.29559 0.018604,0.12609 0.076481,0.24598 z"
         style="font-style:normal;font-variant:normal;font-weight:normal;font-stretch:normal;font-size:4.23333311px;line-height:0;font-family:cmr10;-inkscape-font-specification:cmr10;letter-spacing:0px;direction:ltr;stroke-width:0.16863123"
         id="path1124"
         inkscape:connector-curvature="0" />
      <path
         d="m 13.287068,242.75778 q -0.254248,0 -0.471289,-0.12816 -0.217041,-0.13022 -0.343132,-0.34727 -0.12609,-0.21704 -0.12609,-0.47335 0,-0.1943 0.06821,-0.37414 0.07028,-0.17983 0.198437,-0.32039 0.130225,-0.14263 0.30179,-0.22118 0.171566,-0.0806 0.372071,-0.0806 0.260449,0 0.473356,0.13849 0.214974,0.13643 0.338997,0.36794 0.124024,0.22944 0.124024,0.48989 0,0.25425 -0.126091,0.47335 -0.12609,0.21705 -0.343131,0.34727 -0.214974,0.12816 -0.467155,0.12816 z m 0,-0.12403 q 0.338997,0 0.452685,-0.24598 0.113688,-0.24598 0.113688,-0.62631 0,-0.21291 -0.02274,-0.3514 -0.02274,-0.14056 -0.09922,-0.25425 -0.04754,-0.0703 -0.121956,-0.12196 -0.07235,-0.0537 -0.15503,-0.0806 -0.08061,-0.0289 -0.167431,-0.0289 -0.132292,0 -0.252181,0.0599 -0.117823,0.0599 -0.196371,0.17157 -0.07855,0.11989 -0.101285,0.26458 -0.02067,0.14263 -0.02067,0.34107 0,0.23771 0.04134,0.42788 0.04134,0.1881 0.165365,0.31626 0.12609,0.12815 0.363802,0.12815 z"
         style="font-style:normal;font-variant:normal;font-weight:normal;font-stretch:normal;font-size:4.23333311px;line-height:0;font-family:cmr10;-inkscape-font-specification:cmr10;letter-spacing:0px;direction:ltr;stroke-width:0.16863123"
         id="path1126"
         inkscape:connector-curvature="0" />
      <path
         d="m 14.481826,242.71024 v -0.14883 q 0.142627,0 0.235645,-0.0227 0.09302,-0.0227 0.09302,-0.11162 v -1.3932 H 14.48596 v -0.14883 h 0.324528 v -0.50642 q 0,-0.13643 0.05581,-0.25425 0.05788,-0.11989 0.152962,-0.20878 0.09715,-0.0889 0.221175,-0.13849 0.126091,-0.0517 0.260449,-0.0517 0.142627,0 0.256315,0.0847 0.115756,0.0848 0.115756,0.22531 0,0.0806 -0.05581,0.13643 -0.05374,0.0537 -0.134359,0.0537 -0.08061,0 -0.138493,-0.0537 -0.05581,-0.0558 -0.05581,-0.13643 0,-0.13229 0.113688,-0.17776 -0.06821,-0.0227 -0.121956,-0.0227 -0.124024,0 -0.212907,0.0889 -0.08682,0.0868 -0.130225,0.21291 -0.04341,0.12609 -0.04341,0.25011 v 0.49816 H 15.5815 v 0.14883 h -0.473356 v 1.3932 q 0,0.0868 0.124024,0.11162 0.124023,0.0227 0.285254,0.0227 v 0.14883 z"
         style="font-style:normal;font-variant:normal;font-weight:normal;font-stretch:normal;font-size:4.23333311px;line-height:0;font-family:cmr10;-inkscape-font-specification:cmr10;letter-spacing:0px;direction:ltr;stroke-width:0.16863123"
         id="path1128"
         inkscape:connector-curvature="0" />
      <path
         d="m 17.479059,242.20174 v -1.16789 h -0.3514 v -0.10955 q 0.276986,0 0.407211,-0.25838 0.130224,-0.25839 0.130224,-0.56018 h 0.121957 v 0.77928 h 0.597379 v 0.14883 h -0.597379 v 1.15962 q 0,0.1757 0.05788,0.30799 0.05994,0.13229 0.212907,0.13229 0.144694,0 0.208773,-0.13849 0.06408,-0.14056 0.06408,-0.30179 v -0.25011 h 0.121956 v 0.25838 q 0,0.13229 -0.04961,0.26252 -0.04754,0.12815 -0.142627,0.21084 -0.09509,0.0827 -0.231511,0.0827 -0.254248,0 -0.403076,-0.1509 -0.146761,-0.15296 -0.146761,-0.40514 z"
         style="font-style:normal;font-variant:normal;font-weight:normal;font-stretch:normal;font-size:4.23333311px;line-height:0;font-family:cmr10;-inkscape-font-specification:cmr10;letter-spacing:0px;direction:ltr;stroke-width:0.16863123"
         id="path1130"
         inkscape:connector-curvature="0" />
      <path
         d="m 18.816445,242.71024 v -0.14883 q 0.144694,0 0.237712,-0.0227 0.09302,-0.0227 0.09302,-0.11162 V 240.205 q 0,-0.11369 -0.03514,-0.1633 -0.03307,-0.0517 -0.09715,-0.062 -0.06408,-0.0124 -0.198438,-0.0124 v -0.14883 l 0.628386,-0.0455 v 1.45521 q 0.08888,-0.1757 0.248046,-0.28112 0.159164,-0.10749 0.3514,-0.10749 0.293522,0 0.440283,0.14056 0.148829,0.14056 0.148829,0.42995 v 1.01699 q 0,0.0889 0.09302,0.11162 0.09302,0.0227 0.237712,0.0227 v 0.14883 h -0.96945 v -0.14883 q 0.144694,0 0.237711,-0.0227 0.09302,-0.0227 0.09302,-0.11162 v -1.00459 q 0,-0.20671 -0.05994,-0.339 -0.05994,-0.13436 -0.245979,-0.13436 -0.24598,0 -0.405144,0.19637 -0.157096,0.19637 -0.157096,0.44649 v 0.83509 q 0,0.0889 0.09302,0.11162 0.09302,0.0227 0.235644,0.0227 v 0.14883 z"
         style="font-style:normal;font-variant:normal;font-weight:normal;font-stretch:normal;font-size:4.23333311px;line-height:0;font-family:cmr10;-inkscape-font-specification:cmr10;letter-spacing:0px;direction:ltr;stroke-width:0.16863123"
         id="path1132"
         inkscape:connector-curvature="0" />
      <path
         d="m 21.150153,242.71024 v -0.14883 q 0.144694,0 0.237712,-0.0227 0.09302,-0.0227 0.09302,-0.11162 v -1.15549 q 0,-0.11368 -0.03514,-0.16329 -0.03307,-0.0517 -0.09715,-0.062 -0.06408,-0.0124 -0.198438,-0.0124 v -0.14883 l 0.605648,-0.0455 v 0.41341 q 0.06821,-0.18397 0.194303,-0.29766 0.126091,-0.11575 0.305925,-0.11575 0.12609,0 0.225309,0.0744 0.09922,0.0744 0.09922,0.19637 0,0.0765 -0.05581,0.13436 -0.05374,0.0558 -0.134358,0.0558 -0.07855,0 -0.134359,-0.0558 -0.05581,-0.0558 -0.05581,-0.13436 0,-0.11368 0.08062,-0.16123 h -0.0248 q -0.171566,0 -0.28112,0.12403 -0.107487,0.12402 -0.152962,0.30799 -0.04548,0.18397 -0.04548,0.3514 v 0.69453 q 0,0.13436 0.411344,0.13436 v 0.14883 z"
         style="font-style:normal;font-variant:normal;font-weight:normal;font-stretch:normal;font-size:4.23333311px;line-height:0;font-family:cmr10;-inkscape-font-specification:cmr10;letter-spacing:0px;direction:ltr;stroke-width:0.16863123"
         id="path1134"
         inkscape:connector-curvature="0" />
      <path
         d="m 23.754645,242.75778 q -0.254248,0 -0.471289,-0.12816 -0.217041,-0.13022 -0.343132,-0.34727 -0.12609,-0.21704 -0.12609,-0.47335 0,-0.1943 0.06821,-0.37414 0.07028,-0.17983 0.198437,-0.32039 0.130225,-0.14263 0.30179,-0.22118 0.171566,-0.0806 0.372071,-0.0806 0.260449,0 0.473356,0.13849 0.214974,0.13643 0.338997,0.36794 0.124024,0.22944 0.124024,0.48989 0,0.25425 -0.126091,0.47335 -0.12609,0.21705 -0.343131,0.34727 -0.214974,0.12816 -0.467155,0.12816 z m 0,-0.12403 q 0.338997,0 0.452685,-0.24598 0.113688,-0.24598 0.113688,-0.62631 0,-0.21291 -0.02274,-0.3514 -0.02274,-0.14056 -0.09922,-0.25425 -0.04754,-0.0703 -0.121956,-0.12196 -0.07235,-0.0537 -0.15503,-0.0806 -0.08062,-0.0289 -0.167431,-0.0289 -0.132292,0 -0.252181,0.0599 -0.117823,0.0599 -0.196371,0.17157 -0.07855,0.11989 -0.101286,0.26458 -0.02067,0.14263 -0.02067,0.34107 0,0.23771 0.04134,0.42788 0.04134,0.1881 0.165365,0.31626 0.12609,0.12815 0.363802,0.12815 z"
         style="font-style:normal;font-variant:normal;font-weight:normal;font-stretch:normal;font-size:4.23333311px;line-height:0;font-family:cmr10;-inkscape-font-specification:cmr10;letter-spacing:0px;direction:ltr;stroke-width:0.16863123"
         id="path1136"
         inkscape:connector-curvature="0" />
      <path
         d="m 25.749355,242.71024 -0.54777,-1.53996 q -0.03721,-0.093 -0.107487,-0.11369 -0.07028,-0.0227 -0.204639,-0.0227 v -0.14883 h 0.872298 v 0.14883 q -0.250113,0 -0.250113,0.10542 0.0021,0.006 0.0021,0.0124 0.0021,0.006 0.0021,0.0186 l 0.40721,1.14101 0.3514,-0.99425 -0.05581,-0.14676 q -0.03307,-0.093 -0.10542,-0.11369 -0.07235,-0.0227 -0.204638,-0.0227 v -0.14883 h 0.835091 v 0.14883 q -0.250114,0 -0.250114,0.10542 0,0.0165 0.0041,0.031 l 0.423747,1.19269 0.384472,-1.079 q 0.0083,-0.0331 0.0083,-0.06 0,-0.0889 -0.07648,-0.13849 -0.07441,-0.0517 -0.167431,-0.0517 v -0.14883 h 0.719336 v 0.14883 q -0.128158,0 -0.221176,0.0682 -0.09095,0.0661 -0.134358,0.1819 l -0.504362,1.42627 q -0.01447,0.0475 -0.06408,0.0475 h -0.03307 q -0.04961,0 -0.06408,-0.0475 l -0.427881,-1.20717 -0.42788,1.20717 q -0.02067,0.0475 -0.06615,0.0475 h -0.03101 q -0.05168,0 -0.06615,-0.0475 z"
         style="font-style:normal;font-variant:normal;font-weight:normal;font-stretch:normal;font-size:4.23333311px;line-height:0;font-family:cmr10;-inkscape-font-specification:cmr10;letter-spacing:0px;direction:ltr;stroke-width:0.16863123"
         id="path1138"
         inkscape:connector-curvature="0" />
      <path
         d="m 27.996245,242.71024 v -0.14883 q 0.144694,0 0.237712,-0.0227 0.09302,-0.0227 0.09302,-0.11162 v -1.15549 q 0,-0.11368 -0.03514,-0.16329 -0.03307,-0.0517 -0.09715,-0.062 -0.06408,-0.0124 -0.198438,-0.0124 v -0.14883 l 0.613916,-0.0455 v 0.41341 q 0.08475,-0.1819 0.250114,-0.29766 0.167432,-0.11575 0.363802,-0.11575 0.293522,0 0.440283,0.14056 0.148829,0.14056 0.148829,0.42995 v 1.01699 q 0,0.0889 0.09302,0.11162 0.09302,0.0227 0.237712,0.0227 v 0.14883 h -0.96945 v -0.14883 q 0.144694,0 0.237711,-0.0227 0.09302,-0.0227 0.09302,-0.11162 v -1.00459 q 0,-0.20671 -0.05994,-0.339 -0.05994,-0.13436 -0.245979,-0.13436 -0.24598,0 -0.405144,0.19637 -0.157096,0.19637 -0.157096,0.44649 v 0.83509 q 0,0.0889 0.09302,0.11162 0.09302,0.0227 0.235644,0.0227 v 0.14883 z"
         style="font-style:normal;font-variant:normal;font-weight:normal;font-stretch:normal;font-size:4.23333311px;line-height:0;font-family:cmr10;-inkscape-font-specification:cmr10;letter-spacing:0px;direction:ltr;stroke-width:0.16863123"
         id="path1140"
         inkscape:connector-curvature="0" />
      <path
         d="m 31.739686,243.53086 v -0.14676 q 0.144694,0 0.237712,-0.0248 0.09302,-0.0248 0.09302,-0.11162 v -2.04018 q 0,-0.11576 -0.08268,-0.1447 -0.08268,-0.0289 -0.248047,-0.0289 v -0.14883 l 0.626318,-0.0455 v 0.26252 q 0.115756,-0.12816 0.268718,-0.19431 0.155029,-0.0682 0.328662,-0.0682 0.250114,0 0.450618,0.13642 0.200505,0.13436 0.312126,0.35554 0.113688,0.21911 0.113688,0.46509 0,0.25631 -0.12609,0.47749 -0.124024,0.22117 -0.341065,0.35346 -0.214974,0.13023 -0.473356,0.13023 -0.307991,0 -0.520898,-0.25012 v 0.74001 q 0,0.0868 0.09302,0.11162 0.09509,0.0248 0.237712,0.0248 v 0.14676 z m 0.638721,-1.23197 q 0.07441,0.1509 0.206706,0.25012 0.132291,0.0971 0.289388,0.0971 0.146761,0 0.258382,-0.0786 0.113688,-0.0786 0.190169,-0.21084 0.07648,-0.13229 0.111621,-0.27699 0.03721,-0.14676 0.03721,-0.28318 0,-0.1695 -0.06201,-0.36587 -0.05994,-0.19844 -0.186035,-0.3328 -0.124023,-0.13642 -0.30179,-0.13642 -0.171566,0 -0.31626,0.0889 -0.142627,0.0868 -0.227376,0.23771 z"
         style="font-style:normal;font-variant:normal;font-weight:normal;font-stretch:normal;font-size:4.23333311px;line-height:0;font-family:cmr10;-inkscape-font-specification:cmr10;letter-spacing:0px;direction:ltr;stroke-width:0.16863123"
         id="path1142"
         inkscape:connector-curvature="0" />
      <path
         d="m 34.149875,242.29476 q 0,-0.25218 0.198438,-0.40928 0.198437,-0.15916 0.475423,-0.22324 0.279053,-0.0661 0.529167,-0.0661 v -0.17363 q 0,-0.12196 -0.05374,-0.23565 -0.05374,-0.11575 -0.155029,-0.1881 -0.101286,-0.0744 -0.223242,-0.0744 -0.28112,0 -0.427881,0.12609 0.08062,0 0.132292,0.062 0.05374,0.0599 0.05374,0.14056 0,0.0847 -0.05995,0.14469 -0.05994,0.06 -0.142627,0.06 -0.08475,0 -0.144694,-0.06 -0.05994,-0.0599 -0.05994,-0.14469 0,-0.22324 0.202571,-0.33073 0.202572,-0.10955 0.446485,-0.10955 0.171565,0 0.345198,0.0744 0.173633,0.0724 0.283187,0.20877 0.111621,0.13643 0.111621,0.31833 v 0.95291 q 0,0.0827 0.03514,0.15297 0.03514,0.0682 0.109554,0.0682 0.07028,0 0.103353,-0.0703 0.03514,-0.0703 0.03514,-0.1509 v -0.27078 h 0.124023 v 0.27078 q 0,0.0951 -0.04961,0.18191 -0.04961,0.0847 -0.134359,0.13642 -0.08268,0.0496 -0.179834,0.0496 -0.124023,0 -0.214974,-0.0951 -0.08888,-0.0972 -0.09922,-0.22945 -0.07855,0.15917 -0.231511,0.25425 -0.152962,0.093 -0.326595,0.093 -0.16123,0 -0.318327,-0.0475 -0.155029,-0.0476 -0.260449,-0.14883 -0.103353,-0.10336 -0.103353,-0.26665 z m 0.343132,0 q 0,0.14883 0.109554,0.25011 0.109554,0.10129 0.258382,0.10129 0.136426,0 0.248047,-0.0682 0.111621,-0.0682 0.177767,-0.18603 0.06615,-0.11782 0.06615,-0.24805 v -0.44028 q -0.192237,0 -0.394808,0.0641 -0.200505,0.062 -0.332796,0.19637 -0.132292,0.13436 -0.132292,0.33073 z"
         style="font-style:normal;font-variant:normal;font-weight:normal;font-stretch:normal;font-size:4.23333311px;line-height:0;font-family:cmr10;-inkscape-font-specification:cmr10;letter-spacing:0px;direction:ltr;stroke-width:0.16863123"
         id="path1144"
         inkscape:connector-curvature="0" />
      <path
         d="m 36.237601,242.72264 v -0.6904 q 0,-0.0331 0.03721,-0.0331 h 0.05168 q 0.02481,0 0.03307,0.0331 0.117822,0.61392 0.570508,0.61392 0.200504,0 0.334863,-0.091 0.136426,-0.0909 0.136426,-0.28112 0,-0.13643 -0.10542,-0.23151 -0.10542,-0.0972 -0.250114,-0.1323 l -0.283187,-0.0558 q -0.142627,-0.031 -0.260449,-0.0951 -0.115755,-0.0641 -0.19017,-0.1695 -0.07441,-0.10749 -0.07441,-0.24805 0,-0.18603 0.09715,-0.30385 0.09922,-0.11989 0.256315,-0.17157 0.157097,-0.0537 0.338998,-0.0537 0.217041,0 0.378271,0.11575 l 0.121956,-0.10542 q 0,-0.0103 0.02067,-0.0103 h 0.03101 q 0.0124,0 0.02274,0.0124 0.01034,0.0103 0.01034,0.0227 v 0.55397 q 0,0.0393 -0.03307,0.0393 h -0.05168 q -0.03721,0 -0.03721,-0.0393 0,-0.22118 -0.124023,-0.35554 -0.121956,-0.13435 -0.343132,-0.13435 -0.190169,0 -0.330729,0.0703 -0.138493,0.0703 -0.138493,0.24184 0,0.11782 0.09922,0.1943 0.101286,0.0744 0.235645,0.10749 l 0.287321,0.0537 q 0.144694,0.0331 0.268717,0.11162 0.126091,0.0785 0.198438,0.19843 0.07441,0.11989 0.07441,0.27079 0,0.15296 -0.05374,0.26665 -0.05168,0.11162 -0.146761,0.18603 -0.09302,0.0744 -0.221175,0.10956 -0.128158,0.0351 -0.268717,0.0351 -0.264584,0 -0.452686,-0.17777 l -0.155029,0.16743 q 0,0.0103 -0.02274,0.0103 h -0.02481 q -0.03721,0 -0.03721,-0.0351 z"
         style="font-style:normal;font-variant:normal;font-weight:normal;font-stretch:normal;font-size:4.23333311px;line-height:0;font-family:cmr10;-inkscape-font-specification:cmr10;letter-spacing:0px;direction:ltr;stroke-width:0.16863123"
         id="path1146"
         inkscape:connector-curvature="0" />
      <path
         d="m 37.905719,242.72264 v -0.6904 q 0,-0.0331 0.03721,-0.0331 h 0.05168 q 0.02481,0 0.03307,0.0331 0.117823,0.61392 0.570508,0.61392 0.200505,0 0.334863,-0.091 0.136426,-0.0909 0.136426,-0.28112 0,-0.13643 -0.10542,-0.23151 -0.10542,-0.0972 -0.250114,-0.1323 l -0.283187,-0.0558 q -0.142626,-0.031 -0.260449,-0.0951 -0.115755,-0.0641 -0.190169,-0.1695 -0.07441,-0.10749 -0.07441,-0.24805 0,-0.18603 0.09715,-0.30385 0.09922,-0.11989 0.256315,-0.17157 0.157096,-0.0537 0.338997,-0.0537 0.217041,0 0.378272,0.11575 l 0.121956,-0.10542 q 0,-0.0103 0.02067,-0.0103 h 0.03101 q 0.0124,0 0.02274,0.0124 0.01033,0.0103 0.01033,0.0227 v 0.55397 q 0,0.0393 -0.03307,0.0393 h -0.05168 q -0.03721,0 -0.03721,-0.0393 0,-0.22118 -0.124024,-0.35554 -0.121956,-0.13435 -0.343131,-0.13435 -0.190169,0 -0.330729,0.0703 -0.138493,0.0703 -0.138493,0.24184 0,0.11782 0.09922,0.1943 0.101286,0.0744 0.235644,0.10749 l 0.287321,0.0537 q 0.144694,0.0331 0.268718,0.11162 0.12609,0.0785 0.198437,0.19843 0.07441,0.11989 0.07441,0.27079 0,0.15296 -0.05374,0.26665 -0.05168,0.11162 -0.146761,0.18603 -0.09302,0.0744 -0.221175,0.10956 -0.128158,0.0351 -0.268718,0.0351 -0.264583,0 -0.452685,-0.17777 l -0.15503,0.16743 q 0,0.0103 -0.02274,0.0103 h -0.02481 q -0.03721,0 -0.03721,-0.0351 z"
         style="font-style:normal;font-variant:normal;font-weight:normal;font-stretch:normal;font-size:4.23333311px;line-height:0;font-family:cmr10;-inkscape-font-specification:cmr10;letter-spacing:0px;direction:ltr;stroke-width:0.16863123"
         id="path1148"
         inkscape:connector-curvature="0" />
      <path
         d="m 40.487472,242.75778 q -0.258382,0 -0.475423,-0.13436 -0.214974,-0.13643 -0.338998,-0.36174 -0.121956,-0.22737 -0.121956,-0.47955 0,-0.24805 0.111621,-0.47129 0.113688,-0.22324 0.314193,-0.35967 0.202571,-0.13849 0.450618,-0.13849 0.194304,0 0.336931,0.0661 0.144694,0.0641 0.237711,0.17984 0.09302,0.11575 0.14056,0.27285 0.04754,0.15709 0.04754,0.3452 0,0.0558 -0.04341,0.0558 h -1.225765 v 0.0455 q 0,0.3514 0.14056,0.60358 0.142627,0.25218 0.463021,0.25218 0.130225,0 0.239779,-0.0579 0.111621,-0.0579 0.192236,-0.16123 0.08268,-0.10336 0.111621,-0.22118 0.0041,-0.0145 0.01447,-0.0248 0.0124,-0.0124 0.02687,-0.0124 h 0.03721 q 0.04341,0 0.04341,0.0538 -0.05994,0.23978 -0.258382,0.39481 -0.198437,0.15296 -0.444417,0.15296 z m -0.56224,-1.13068 h 0.965316 q 0,-0.15917 -0.04548,-0.32246 -0.04341,-0.1633 -0.146761,-0.27079 -0.103353,-0.10955 -0.270785,-0.10955 -0.239778,0 -0.37207,0.22531 -0.130225,0.22324 -0.130225,0.47749 z"
         style="font-style:normal;font-variant:normal;font-weight:normal;font-stretch:normal;font-size:4.23333311px;line-height:0;font-family:cmr10;-inkscape-font-specification:cmr10;letter-spacing:0px;direction:ltr;stroke-width:0.16863123"
         id="path1150"
         inkscape:connector-curvature="0" />
      <path
         d="m 41.452789,242.72264 v -0.6904 q 0,-0.0331 0.03721,-0.0331 h 0.05168 q 0.02481,0 0.03307,0.0331 0.117822,0.61392 0.570508,0.61392 0.200504,0 0.334863,-0.091 0.136426,-0.0909 0.136426,-0.28112 0,-0.13643 -0.10542,-0.23151 -0.10542,-0.0972 -0.250114,-0.1323 l -0.283187,-0.0558 q -0.142627,-0.031 -0.260449,-0.0951 -0.115755,-0.0641 -0.190169,-0.1695 -0.07441,-0.10749 -0.07441,-0.24805 0,-0.18603 0.09715,-0.30385 0.09922,-0.11989 0.256315,-0.17157 0.157097,-0.0537 0.338998,-0.0537 0.217041,0 0.378271,0.11575 l 0.121957,-0.10542 q 0,-0.0103 0.02067,-0.0103 h 0.03101 q 0.0124,0 0.02274,0.0124 0.01033,0.0103 0.01033,0.0227 v 0.55397 q 0,0.0393 -0.03307,0.0393 h -0.05168 q -0.03721,0 -0.03721,-0.0393 0,-0.22118 -0.124023,-0.35554 -0.121956,-0.13435 -0.343131,-0.13435 -0.19017,0 -0.33073,0.0703 -0.138492,0.0703 -0.138492,0.24184 0,0.11782 0.09922,0.1943 0.101286,0.0744 0.235645,0.10749 l 0.287321,0.0537 q 0.144694,0.0331 0.268717,0.11162 0.126091,0.0785 0.198438,0.19843 0.07441,0.11989 0.07441,0.27079 0,0.15296 -0.05374,0.26665 -0.05168,0.11162 -0.146761,0.18603 -0.09302,0.0744 -0.221175,0.10956 -0.128157,0.0351 -0.268717,0.0351 -0.264584,0 -0.452686,-0.17777 l -0.155029,0.16743 q 0,0.0103 -0.02274,0.0103 h -0.0248 q -0.03721,0 -0.03721,-0.0351 z"
         style="font-style:normal;font-variant:normal;font-weight:normal;font-stretch:normal;font-size:4.23333311px;line-height:0;font-family:cmr10;-inkscape-font-specification:cmr10;letter-spacing:0px;direction:ltr;stroke-width:0.16863123"
         id="path1152"
         inkscape:connector-curvature="0" />
      <path
         d="m 43.335876,242.47666 q 0,-0.0951 0.07028,-0.1633 0.07028,-0.0682 0.163298,-0.0682 0.05788,0 0.113688,0.031 0.05581,0.031 0.08682,0.0868 0.03101,0.0558 0.03101,0.11369 0,0.093 -0.06821,0.1633 -0.06821,0.0703 -0.163297,0.0703 -0.09302,0 -0.163298,-0.0703 -0.07028,-0.0703 -0.07028,-0.1633 z m 0,-1.35806 q 0,-0.0599 0.03101,-0.11369 0.03101,-0.0537 0.08475,-0.0868 0.05581,-0.0331 0.117823,-0.0331 0.05994,0 0.113688,0.0331 0.05581,0.0331 0.08682,0.0868 0.03101,0.0538 0.03101,0.11369 0,0.0951 -0.06821,0.16537 -0.06615,0.0682 -0.163297,0.0682 -0.09508,0 -0.165365,-0.0682 -0.06821,-0.0703 -0.06821,-0.16537 z"
         style="font-style:normal;font-variant:normal;font-weight:normal;font-stretch:normal;font-size:4.23333311px;line-height:0;font-family:cmr10;-inkscape-font-specification:cmr10;letter-spacing:0px;direction:ltr;stroke-width:0.16863123"
         id="path1154"
         inkscape:connector-curvature="0" />
    </g>
    <g
       aria-label="R"
       style="font-style:normal;font-weight:normal;font-size:4.23333311px;line-height:1.25;font-family:sans-serif;letter-spacing:0px;word-spacing:0px;fill:#000000;fill-opacity:1;stroke:none;stroke-width:0.16863123"
       id="text892-2-8">
      <path
         d="m 175.39916,242.86101 q -0.0413,0 -0.0413,-0.0558 0.002,-0.0103 0.008,-0.0351 0.006,-0.0269 0.0165,-0.0413 0.0124,-0.0165 0.0289,-0.0165 0.25838,0 0.36173,-0.0289 0.0538,-0.0186 0.0786,-0.11369 l 0.58084,-2.32544 q 0.008,-0.0413 0.008,-0.0579 0,-0.0455 -0.0496,-0.0517 -0.0806,-0.0165 -0.30592,-0.0165 -0.0413,0 -0.0413,-0.0558 0.002,-0.0103 0.008,-0.0351 0.006,-0.0269 0.0165,-0.0413 0.0124,-0.0165 0.0289,-0.0165 h 1.28364 q 0.15296,0 0.31833,0.0351 0.16536,0.0351 0.30386,0.11163 0.13849,0.0744 0.22737,0.2005 0.0889,0.12402 0.0889,0.29146 0,0.2129 -0.14056,0.38033 -0.14056,0.16744 -0.35554,0.28112 -0.21497,0.11162 -0.41754,0.1571 0.16536,0.0599 0.27078,0.19224 0.10542,0.13022 0.10542,0.30179 0,0.0227 -0.002,0.0351 0,0.0103 -0.002,0.0248 l -0.0331,0.37621 q -0.004,0.0827 -0.008,0.14056 -0.004,0.0579 -0.004,0.093 0,0.11576 0.0331,0.18604 0.0351,0.0682 0.13642,0.0682 0.13229,0 0.23151,-0.12196 0.10129,-0.12402 0.13229,-0.26871 0.0186,-0.0372 0.0413,-0.0372 h 0.0393 q 0.0413,0 0.0413,0.0558 -0.031,0.12196 -0.0992,0.23151 -0.0661,0.10956 -0.1695,0.17984 -0.10128,0.0703 -0.22117,0.0703 -0.24805,0 -0.42375,-0.10956 -0.17363,-0.11162 -0.17363,-0.34726 0,-0.0889 0.0165,-0.1571 l 0.093,-0.37621 q 0.0165,-0.0517 0.0165,-0.11988 0,-0.1757 -0.11989,-0.27492 -0.11782,-0.10129 -0.29766,-0.10129 h -0.5209 l -0.27905,1.11828 q -0.0103,0.0351 -0.0103,0.0599 0,0.0434 0.0517,0.0496 0.0806,0.0165 0.30386,0.0165 0.0434,0 0.0434,0.0558 -0.0145,0.0599 -0.0227,0.0765 -0.008,0.0165 -0.0496,0.0165 z m 1.11415,-1.50275 h 0.46922 q 0.46095,0 0.69453,-0.23358 0.10749,-0.10749 0.1695,-0.27285 0.0641,-0.16743 0.0641,-0.3328 0,-0.15709 -0.093,-0.24598 -0.0909,-0.0889 -0.22737,-0.12195 -0.13436,-0.0331 -0.29766,-0.0331 h -0.28319 q -0.11575,0 -0.15296,0.0207 -0.0372,0.0186 -0.0682,0.12403 z"
         style="font-style:normal;font-variant:normal;font-weight:normal;font-stretch:normal;font-size:4.23333311px;font-family:cmmi10;-inkscape-font-specification:cmmi10;stroke-width:0.16863123"
         id="path1064"
         inkscape:connector-curvature="0" />
    </g>
    <g
       aria-label="L"
       style="font-style:normal;font-weight:normal;font-size:4.23333311px;line-height:1.25;font-family:sans-serif;letter-spacing:0px;word-spacing:0px;fill:#000000;fill-opacity:1;stroke:none;stroke-width:0.16863123"
       id="text892-2-2">
      <path
         d="m 114.17844,242.79298 q -0.0413,0 -0.0413,-0.0558 0.002,-0.0103 0.008,-0.0351 0.006,-0.0269 0.0165,-0.0413 0.0124,-0.0165 0.0289,-0.0165 0.25839,0 0.35967,-0.0289 0.0558,-0.0186 0.0806,-0.11369 l 0.58084,-2.32544 q 0.008,-0.0413 0.008,-0.0579 0,-0.0455 -0.0517,-0.0517 -0.0785,-0.0165 -0.30386,-0.0165 -0.0413,0 -0.0413,-0.0558 0.0145,-0.0537 0.0227,-0.0724 0.008,-0.0207 0.0475,-0.0207 h 1.25057 q 0.0372,0 0.0372,0.0558 -0.006,0.0434 -0.0145,0.0682 -0.008,0.0248 -0.0413,0.0248 -0.31213,0 -0.41755,0.0207 -0.10335,0.0186 -0.12815,0.12402 l -0.57878,2.32338 q -0.0186,0.0517 -0.0186,0.093 0,0.0331 0.14469,0.0331 h 0.39274 q 0.3328,0 0.5395,-0.1323 0.20671,-0.13229 0.30593,-0.29765 0.0992,-0.16743 0.16536,-0.3452 0.0682,-0.17983 0.0992,-0.18604 h 0.0372 q 0.0434,0 0.0434,0.0558 l -0.37621,1.02527 q -0.006,0.0289 -0.0393,0.0289 z"
         style="font-style:normal;font-variant:normal;font-weight:normal;font-stretch:normal;font-size:4.23333311px;font-family:cmmi10;-inkscape-font-specification:cmmi10;stroke-width:0.16863123"
         id="path1061"
         inkscape:connector-curvature="0" />
    </g>
    <path
       style="fill:none;stroke:#000000;stroke-width:0.39491925;stroke-linecap:butt;stroke-linejoin:miter;stroke-miterlimit:4;stroke-dasharray:none;stroke-opacity:1"
       d="M 0.61359753,237.72084 H 203.34192"
       id="path5018-8"
       inkscape:connector-curvature="0" />
    <path
       style="fill:none;stroke:#000000;stroke-width:0.39491925;stroke-linecap:butt;stroke-linejoin:miter;stroke-miterlimit:4;stroke-dasharray:none;stroke-opacity:1"
       d="M 0.61359653,295.78238 H 203.34192"
       id="path5018-8-8"
       inkscape:connector-curvature="0" />
    <text
       xml:space="preserve"
       style="font-style:normal;font-weight:normal;font-size:5.62104082px;line-height:1.25;font-family:sans-serif;letter-spacing:0px;word-spacing:0px;display:none;fill:#000000;fill-opacity:1;stroke:none;stroke-width:0.16863123"
       x="0.48903719"
       y="226.27597"
       id="text892-2-1-6"><tspan
         sodipodi:role="line"
         x="0.48903719"
         y="226.27597"
         style="font-style:normal;font-variant:normal;font-weight:normal;font-stretch:normal;font-size:4.23333311px;line-height:0;font-family:cmr10;-inkscape-font-specification:cmr10;letter-spacing:0px;direction:ltr;stroke-width:0.16863123"
         id="tspan5050-2">Hand of thrown passes:</tspan></text>
  </g>
</svg>
